<svg width="24" height="24" viewBox="0 0 24 24" fill="none" xmlns="http://www.w3.org/2000/svg">
<path d="M12.1698 1.27209C11.9781 1.27576 11.7955 1.35449 11.6612 1.49137C11.5269 1.62825 11.4517 1.81235 11.4518 2.00409V15.9181C11.4518 16.1122 11.5289 16.2984 11.6662 16.4357C11.8034 16.573 11.9896 16.6501 12.1838 16.6501C12.3779 16.6501 12.5641 16.573 12.7014 16.4357C12.8386 16.2984 12.9158 16.1122 12.9158 15.9181V2.00409C12.9158 1.90686 12.8964 1.8106 12.8588 1.72093C12.8212 1.63126 12.7661 1.54998 12.6968 1.48184C12.6274 1.41369 12.5452 1.36004 12.4549 1.32403C12.3646 1.28802 12.267 1.27036 12.1698 1.27209ZM23.2458 5.44009C23.1502 5.44285 23.0561 5.46425 22.9688 5.50309L16.6868 8.30709C16.5582 8.36515 16.4492 8.45905 16.3727 8.57754C16.2962 8.69602 16.2555 8.83406 16.2555 8.97509C16.2555 9.11612 16.2962 9.25415 16.3727 9.37264C16.4492 9.49112 16.5582 9.58503 16.6868 9.64309L22.9688 12.4561C23.0631 12.4985 23.1653 12.5207 23.2688 12.5211C23.4361 12.5206 23.5982 12.4627 23.7281 12.3571C23.858 12.2516 23.9478 12.1047 23.9825 11.941C24.0172 11.7773 23.9948 11.6066 23.919 11.4574C23.8432 11.3082 23.7185 11.1895 23.5658 11.1211L18.7798 8.97609L23.5658 6.83909C23.7425 6.75953 23.8805 6.61331 23.9499 6.43234C24.0192 6.25137 24.0141 6.05034 23.9358 5.87309C23.8764 5.74084 23.7791 5.62914 23.6563 5.55208C23.5335 5.47502 23.3907 5.43605 23.2458 5.44009ZM0.745763 10.4721C0.632934 10.47 0.52116 10.4941 0.419172 10.5424C0.317184 10.5907 0.227745 10.6619 0.157842 10.7505C0.0879382 10.8391 0.0394636 10.9427 0.0162048 11.0531C-0.00705393 11.1635 -0.00446703 11.2778 0.0237634 11.3871C1.75976 18.0641 7.79876 22.7281 14.7068 22.7281C14.9009 22.7281 15.0871 22.651 15.2244 22.5137C15.3616 22.3764 15.4388 22.1902 15.4388 21.9961C15.4388 21.8019 15.3616 21.6158 15.2244 21.4785C15.0871 21.3412 14.9009 21.2641 14.7068 21.2641C11.6736 21.2653 8.72562 20.2603 6.32481 18.4065C3.92399 16.5527 2.20592 13.9549 1.43976 11.0201C1.39948 10.8657 1.30989 10.7288 1.18461 10.6301C1.05934 10.5313 0.905242 10.4752 0.745763 10.4721Z" fill="black"/>
</svg>
