<svg width="480" height="288" viewBox="0 0 480 288" fill="none" xmlns="http://www.w3.org/2000/svg">
<path fill-rule="evenodd" clip-rule="evenodd" d="M468.7 20C472.26 8.72 468.7 0.519997 452.95 0.519997H400.58C387.37 0.519997 381.27 7.7 377.71 15.38C377.71 15.38 350.77 80.98 313.15 123.51C300.95 135.81 295.36 139.91 288.75 139.91C285.19 139.91 280.61 135.81 280.61 124.54V19.47C280.61 6.15 276.55 0 265.36 0H183C174.86 0 169.78 6.15 169.78 12.3C169.78 25.11 188.59 28.19 190.62 64.06V142C190.62 158.91 187.62 162 180.96 162C163.17 162 119.96 95.89 94.04 20.56C89 5.64 83.88 0 70.66 0H17.79C2.54 0 0 7.17 0 14.86C0 28.7 17.79 98.39 82.86 190.63C126.07 253.63 187.58 287.49 242.99 287.49C276.55 287.49 280.61 279.8 280.61 266.99V219.33C280.61 203.96 283.66 201.4 294.34 201.4C301.96 201.4 315.69 205.49 346.7 235.73C382.28 271.6 388.38 288 408.21 288H460.57C475.82 288 482.94 280.31 478.87 265.45C474.3 250.59 457.01 229.07 434.64 203.45C422.44 189.11 404.14 173.22 398.55 165.53C390.93 155.28 392.96 151.18 398.55 141.96C398.04 141.96 462.1 50.74 468.7 19.96" fill="black"/>
</svg>
